<mxfile host="app.diagrams.net" modified="2024-05-06T11:07:04.129Z" agent="Mozilla/5.0 (Windows NT 10.0; Win64; x64) AppleWebKit/537.36 (KHTML, like Gecko) Chrome/123.0.0.0 Safari/537.36 OPR/109.0.0.0" etag="UESt1Hmph8NfJeYGtQ6g" version="24.3.1" type="google">
  <diagram name="Page-1" id="b520641d-4fe3-3701-9064-5fc419738815">
    <mxGraphModel grid="1" page="1" gridSize="10" guides="1" tooltips="1" connect="1" arrows="1" fold="1" pageScale="1" pageWidth="1100" pageHeight="850" background="none" math="0" shadow="0">
      <root>
        <mxCell id="0" />
        <mxCell id="1" parent="0" />
        <mxCell id="arpW81xyue4JJXuUHP8A-13" style="edgeStyle=orthogonalEdgeStyle;rounded=0;orthogonalLoop=1;jettySize=auto;html=1;entryX=0.5;entryY=1;entryDx=0;entryDy=0;" edge="1" parent="1" source="arpW81xyue4JJXuUHP8A-1" target="arpW81xyue4JJXuUHP8A-6">
          <mxGeometry relative="1" as="geometry">
            <Array as="points">
              <mxPoint x="550" y="720" />
              <mxPoint x="165" y="720" />
            </Array>
          </mxGeometry>
        </mxCell>
        <mxCell id="arpW81xyue4JJXuUHP8A-14" value="Notifications(Selection/Rejection)" style="edgeLabel;html=1;align=center;verticalAlign=middle;resizable=0;points=[];" connectable="0" vertex="1" parent="arpW81xyue4JJXuUHP8A-13">
          <mxGeometry x="0.3031" y="-3" relative="1" as="geometry">
            <mxPoint as="offset" />
          </mxGeometry>
        </mxCell>
        <mxCell id="arpW81xyue4JJXuUHP8A-15" style="edgeStyle=orthogonalEdgeStyle;rounded=0;orthogonalLoop=1;jettySize=auto;html=1;exitX=0;exitY=0;exitDx=0;exitDy=0;entryX=0.5;entryY=1;entryDx=0;entryDy=0;" edge="1" parent="1" source="arpW81xyue4JJXuUHP8A-1" target="arpW81xyue4JJXuUHP8A-3">
          <mxGeometry relative="1" as="geometry" />
        </mxCell>
        <mxCell id="arpW81xyue4JJXuUHP8A-16" value="Reports" style="edgeLabel;html=1;align=center;verticalAlign=middle;resizable=0;points=[];" connectable="0" vertex="1" parent="arpW81xyue4JJXuUHP8A-15">
          <mxGeometry x="-0.3649" y="4" relative="1" as="geometry">
            <mxPoint as="offset" />
          </mxGeometry>
        </mxCell>
        <mxCell id="arpW81xyue4JJXuUHP8A-1" value="System" style="ellipse;whiteSpace=wrap;html=1;" vertex="1" parent="1">
          <mxGeometry x="420" y="370" width="260" height="190" as="geometry" />
        </mxCell>
        <mxCell id="arpW81xyue4JJXuUHP8A-7" style="edgeStyle=orthogonalEdgeStyle;rounded=0;orthogonalLoop=1;jettySize=auto;html=1;" edge="1" parent="1" source="arpW81xyue4JJXuUHP8A-3" target="arpW81xyue4JJXuUHP8A-1">
          <mxGeometry relative="1" as="geometry" />
        </mxCell>
        <mxCell id="arpW81xyue4JJXuUHP8A-8" value="Research Project Information" style="edgeLabel;html=1;align=center;verticalAlign=middle;resizable=0;points=[];" connectable="0" vertex="1" parent="arpW81xyue4JJXuUHP8A-7">
          <mxGeometry x="-0.5056" y="-4" relative="1" as="geometry">
            <mxPoint as="offset" />
          </mxGeometry>
        </mxCell>
        <mxCell id="arpW81xyue4JJXuUHP8A-3" value="University Grants Commission" style="rounded=0;whiteSpace=wrap;html=1;" vertex="1" parent="1">
          <mxGeometry x="80" y="150" width="190" height="120" as="geometry" />
        </mxCell>
        <mxCell id="arpW81xyue4JJXuUHP8A-11" style="edgeStyle=orthogonalEdgeStyle;rounded=0;orthogonalLoop=1;jettySize=auto;html=1;entryX=1;entryY=0.5;entryDx=0;entryDy=0;exitX=0.5;exitY=1;exitDx=0;exitDy=0;" edge="1" parent="1" source="arpW81xyue4JJXuUHP8A-5" target="arpW81xyue4JJXuUHP8A-1">
          <mxGeometry relative="1" as="geometry" />
        </mxCell>
        <mxCell id="arpW81xyue4JJXuUHP8A-12" value="Proposal evaluataions" style="edgeLabel;html=1;align=center;verticalAlign=middle;resizable=0;points=[];" connectable="0" vertex="1" parent="arpW81xyue4JJXuUHP8A-11">
          <mxGeometry x="0.0222" y="-5" relative="1" as="geometry">
            <mxPoint as="offset" />
          </mxGeometry>
        </mxCell>
        <mxCell id="arpW81xyue4JJXuUHP8A-5" value="Reviewers" style="rounded=0;whiteSpace=wrap;html=1;" vertex="1" parent="1">
          <mxGeometry x="660" y="210" width="190" height="120" as="geometry" />
        </mxCell>
        <mxCell id="arpW81xyue4JJXuUHP8A-9" style="edgeStyle=orthogonalEdgeStyle;rounded=0;orthogonalLoop=1;jettySize=auto;html=1;entryX=0;entryY=0.5;entryDx=0;entryDy=0;" edge="1" parent="1" source="arpW81xyue4JJXuUHP8A-6" target="arpW81xyue4JJXuUHP8A-1">
          <mxGeometry relative="1" as="geometry" />
        </mxCell>
        <mxCell id="arpW81xyue4JJXuUHP8A-10" value="Proposal Submission" style="edgeLabel;html=1;align=center;verticalAlign=middle;resizable=0;points=[];" connectable="0" vertex="1" parent="arpW81xyue4JJXuUHP8A-9">
          <mxGeometry x="-0.0431" y="-3" relative="1" as="geometry">
            <mxPoint as="offset" />
          </mxGeometry>
        </mxCell>
        <mxCell id="arpW81xyue4JJXuUHP8A-6" value="Researchers" style="rounded=0;whiteSpace=wrap;html=1;" vertex="1" parent="1">
          <mxGeometry x="70" y="500" width="190" height="120" as="geometry" />
        </mxCell>
        <mxCell id="arpW81xyue4JJXuUHP8A-17" value="&lt;h1 style=&quot;margin-top: 0px;&quot;&gt;Context Diagram&lt;/h1&gt;&lt;p&gt;Simple diagram to understand the basics of the project.&lt;/p&gt;&lt;p&gt;&lt;br&gt;&lt;/p&gt;" style="text;html=1;whiteSpace=wrap;overflow=hidden;rounded=0;" vertex="1" parent="1">
          <mxGeometry x="660" y="20" width="310" height="130" as="geometry" />
        </mxCell>
      </root>
    </mxGraphModel>
  </diagram>
</mxfile>
